<?xml version="1.0" encoding="utf-8"?>
<!-- Generator: Adobe Illustrator 16.0.3, SVG Export Plug-In . SVG Version: 6.00 Build 0)  -->
<!DOCTYPE svg PUBLIC "-//W3C//DTD SVG 1.1//EN" "http://www.w3.org/Graphics/SVG/1.1/DTD/svg11.dtd">
<svg version="1.1" id="Layer_1" xmlns="http://www.w3.org/2000/svg" xmlns:xlink="http://www.w3.org/1999/xlink" x="0px" y="0px"
	 width="449.665px" height="196.645px" viewBox="0 0 449.665 196.645" enable-background="new 0 0 449.665 196.645"
	 xml:space="preserve">
<g>
	<g>
		<polygon fill="#5F5F5F" points="416.721,9.784 420.37,9.784 420.37,19.411 422.407,19.411 422.407,9.784 426.053,9.784 
			426.053,7.912 416.721,7.912 		"/>
		<polygon fill="#5F5F5F" points="437.249,7.912 433.75,13.349 430.25,7.912 428.098,7.912 428.098,19.411 430.084,19.411 
			430.084,11.197 433.684,16.585 433.75,16.585 437.379,11.165 437.379,19.411 439.401,19.411 439.401,7.912 		"/>
	</g>
	<g>
		<path fill="#5F5F5F" d="M53.079,146.514h4.909v42.951h-4.847v-34.791l-15.647,23.012h-0.247L21.6,154.737v34.729h-4.724v-42.951
			h4.909l15.647,23.439L53.079,146.514z M76.006,146.514h-4.851v42.951h25.506v-4.479H76.006V146.514z M120.91,165.659
			c-9.451-2.025-11.658-4.297-11.658-8.345v-0.123c0-3.867,3.56-6.935,9.142-6.935c4.418,0,8.407,1.411,12.396,4.664l2.822-3.744
			c-4.356-3.498-8.836-5.275-15.094-5.275c-8.16,0-14.112,4.969-14.112,11.72v0.122c0,7.056,4.538,10.248,14.418,12.396
			c9.021,1.901,11.17,4.172,11.17,8.161v0.121c0,4.234-3.807,7.304-9.574,7.304c-5.952,0-10.247-2.024-14.727-6.075l-3.007,3.56
			c5.156,4.603,10.738,6.873,17.548,6.873c8.531,0,14.668-4.787,14.668-12.149v-0.122
			C134.902,171.242,130.484,167.744,120.91,165.659z"/>
		<g>
			<path fill="#5F5F5F" d="M16.873,120.672l14.795-5.602c15.37,4.74,19.392,5.602,24.277,5.602c20.397,0,30.309-12.783,30.309-38.64
				c0-24.994-9.049-36.917-27.58-36.917c-4.741,0-11.492,1.868-25.282,6.896V7.912L5.668,14.95v5.89h11.205V120.672z M33.392,58.043
				c9.049-2.153,16.089-2.44,18.674-2.44c11.205,0,16.663,8.762,16.663,27.724c0,21.115-6.608,27.866-21.977,27.866
				c-4.453,0-7.614-0.286-13.36-1.438V58.043z M146.503,45.259c2.155,0,4.741,0.433,6.178,1.007v25.855h-10.774l-3.016-15.083
				c-7.757-0.718-14.078,0-19.392,1.293v51.712l14.652,4.598v4.309H91.775v-4.309l11.205-4.598V58.188H91.775v-5.89l27.724-7.184
				v7.04C128.548,48.42,141.188,45.259,146.503,45.259z M187.262,110.043l10.485,4.598v4.309h-38.208v-4.309l11.204-4.598V58.188
				h-11.204v-5.89l27.724-7.184L187.262,110.043L187.262,110.043z M271.534,33.049l-15.515,14.51
				c-4.74-1.725-10.631-2.586-17.382-2.586c-20.972,0-33.756,8.475-33.756,25.855c0,8.477,3.017,14.939,8.905,19.249
				c-5.601,5.316-9.193,11.348-9.193,16.233c0,3.878,1.725,7.47,4.597,10.055c-6.607,4.597-11.061,12.353-11.061,18.674
				c0,11.779,13.072,20.396,37.636,20.396c24.563,0,41.082-10.343,41.082-27.148c0-11.061-7.901-18.674-19.966-19.392l-34.188-1.867
				c-5.747-0.432-7.614-5.459-3.879-14.078c5.17,2.299,11.636,3.448,19.392,3.448c21.547,0,33.326-8.764,33.326-25.856
				c0-7.9-2.587-14.078-7.613-18.387l14.939-6.608L271.534,33.049z M218.815,120.243l34.044,1.867
				c4.884,0.143,8.188,4.165,8.188,9.336c0,10.486-9.769,16.95-23.989,16.95c-13.79,0-23.413-6.607-23.413-17.956
				c0-2.729,0.718-6.896,1.867-10.629C216.516,119.955,217.666,120.243,218.815,120.243z M238.208,89.358
				c-11.062,0-16.231-5.458-16.231-18.816c0-13.216,5.171-18.531,16.231-18.531c11.06,0,16.23,5.314,16.23,18.531
				C254.438,83.9,249.267,89.358,238.208,89.358z M355.907,110.043l10.484,4.598v4.309h-38.209v-4.309l11.203-4.598V66.95
				c0-8.475-6.463-11.061-14.795-11.061c-3.592,0-11.49,0.43-17.811,1.292v52.861l10.484,4.598v4.309h-38.209v-4.309l11.203-4.598
				V20.84h-11.203v-5.89l27.725-7.038V51.58c13.789-3.591,25.854-6.464,29.732-6.464c10.916,0,19.393,3.305,19.393,18.674v46.253
				H355.907z M169.792,24.101c0-5.242,4.25-9.492,9.492-9.492c5.242,0,9.492,4.25,9.492,9.492s-4.25,9.491-9.492,9.491
				C174.042,33.593,169.792,29.344,169.792,24.101z M416.721,114.497c-14.223,5.026-18.674,6.319-25.568,6.319
				c-10.486,0-17.813-6.176-17.813-20.109v-0.619v-36.03c0.018,0,0.031,0,0.049-0.001c9.281,0.033,16.467,2.91,16.467,16.015v18.595
				l0.004,0.03c0,8.618,4.885,11.491,10.197,11.491c2.014,0,9.338-0.145,15.516-0.862L416.721,114.497z"/>
			<path fill="#FE5000" d="M387.411,61.478c4.75-7.549,12.479-11.156,23.494-10.995c0.533,0.008,1.084,0,1.684,0v-4.955
				c-15.662,0-24.766-6.877-24.766-23.584h-5.059c0,14.019-8.34,23.584-21.471,23.584v4.686
				C372.94,50.612,380.94,54.35,387.411,61.478z"/>
		</g>
	</g>
</g>
</svg>
